<?xml version="1.0" standalone="no"?>
<!DOCTYPE svg PUBLIC "-//W3C//DTD SVG 1.1//EN" "http://www.w3.org/Graphics/SVG/1.1/DTD/svg11.dtd" >
<!--
2013-9-30: Created.
-->
<svg>
<metadata>
Created by iconfont
</metadata>
<defs>

<font id="font_family" horiz-adv-x="1024" >
  <font-face
    font-family="font_family"
    font-weight="500"
    font-stretch="normal"
    units-per-em="1024"
    ascent="896"
    descent="-128"
  />
    <missing-glyph />
    
    <glyph glyph-name="min" unicode="&#58894;" d="M464.2 294.70000000000005H132.1c-37.6 0-68.1-30.5-68.1-68.1V69c0-37.6 30.6-68.1 68.1-68.1h332.1c37.6 0 68.1 30.5 68.1 68.1V226.60000000000002c0 37.6-30.5 68.1-68.1 68.1zM492 69c0-15.3-12.5-27.8-27.8-27.8H132.1c-15.4 0-27.9 12.5-27.9 27.8V226.60000000000002c0 15.3 12.5 27.8 27.9 27.8h332.1c15.3 0 27.8-12.5 27.8-27.8V69zM891.9 767H132.4c-37.6 0-68.1-30.5-68.1-68.1v-263.5c0-11.1 9-20.1 20.1-20.1s20.1 9 20.1 20.1V699c0 15.3 12.5 27.8 27.8 27.8h759.5c15.3 0 27.8-12.5 27.8-27.8v-630c0-15.3-12.5-27.8-27.8-27.8H663c-11.1 0-20.1-9-20.1-20.1 0-11.1 9-20.1 20.1-20.1h228.9c37.6 0 68.1 30.5 68.1 68.1V699c0 37.5-30.5 68-68.1 68z"  horiz-adv-x="1024" />

    
    <glyph glyph-name="email" unicode="&#58895;" d="M753.2 183.79999999999995c-6.8 0-12.4-5.6-12.4-12.4v-106.5c0-25.9-21.1-47.1-47.1-47.1H71.9c-25.9 0-47.1 21.1-47.1 47.1V502.1c0 25.9 21.1 47.1 47.1 47.1h480.6c6.8 0 12.4 5.6 12.4 12.4s-5.6 12.4-12.4 12.4H71.9c-39.6 0-71.9-32.2-71.9-71.9v-437.3c0-39.6 32.2-71.9 71.9-71.9H693.8c39.6 0 71.9 32.2 71.9 71.9V171.39999999999998c-0.1 6.8-5.7 12.4-12.5 12.4zM383.1 307.5l-250 179.7c-5.6 4-13.3 2.7-17.3-2.8-4-5.6-2.7-13.3 2.8-17.3l257-184.7c2.2-1.6 4.7-2.4 7.3-2.4 2.4 0 4.7 0.7 6.8 2.1L570.3 401c5.7 3.8 7.3 11.4 3.5 17.2-3.8 5.7-11.5 7.3-17.2 3.5L383.1 307.5zM1052.3 775H923.1C766.6 775 639.8 648.1 639.8 491.7c0-156.5 126.9-283.3 283.3-283.3h129.2c156.5 0 283.3 126.9 283.3 283.3S1208.7 775 1052.3 775z"  horiz-adv-x="1335" />

    
    <glyph glyph-name="theme" unicode="&#58896;" d="M746.4-7.100000000000023H277.6c-7.6 0-13.9 6.2-13.9 13.9V424.1l-5.3-4.7c-15.9-14.2-35.3-21.5-57.9-19.6-21.3 1.6-40.7 11.4-54.4 27.8l-63.6 75.5c-13.7 16.3-20.1 36.9-18.1 58.1 2 21.2 12.2 40.3 28.8 53.7l169.6 137.2c21.5 17.3 48.4 25.5 75.6 22.2 27.4-2.9 51.9-16.4 69.1-37.9l54.3-68c24.5-30.9 76.1-30.7 100.6 0l54.3 68c17.2 21.5 41.7 34.9 69 37.9 27.5 3.6 54.2-4.9 75.7-22.2L931 614.9c16.5-13.4 26.7-32.4 28.8-53.7 2-21.2-4.4-41.8-18.1-58.1L878 427.6c-13.8-16.4-33.2-26.3-54.5-27.8-20.8-1.7-41.9 5.4-57.9 19.6l-5.3 4.7v-417.4c0-7.6-6.2-13.8-13.9-13.8z m-454.9 27.7h441.1V454.9c0 5.5 3.2 10.4 8.2 12.7 5.1 2.2 10.9 1.3 14.9-2.3l28.4-25.2c10.4-9.2 23.9-13.3 37.5-12.7 13.8 1 26.3 7.4 35.3 18l63.5 75.5c8.9 10.6 13.1 23.9 11.8 37.6-1.4 13.7-8 26.1-18.7 34.8L743.8 730.6c-15.6 12.5-34.8 18.5-55.2 16.2-20-2.2-37.8-12-50.3-27.7l-54.3-68c-17.5-22-43.8-34.6-71.9-34.6-28.2 0-54.3 12.6-71.9 34.6l-54.3 68c-12.5 15.7-30.5 25.5-50.4 27.7-19.9 2.4-39.5-3.5-55.2-16.2L110.7 593.4c-10.8-8.7-17.4-21-18.7-34.8-1.4-13.7 2.8-27.1 11.7-37.6l63.6-75.5c8.9-10.6 21.4-17 35.2-18 13.5-0.5 27.1 3.5 37.5 12.7l28.4 25.2c4 3.7 9.8 4.5 14.9 2.3 5-2.2 8.2-7.2 8.2-12.7v-434.4z"  horiz-adv-x="1024" />

    
    <glyph glyph-name="arrow-bottom" unicode="&#58897;" d="M128.5 616h767c58.2 0 86.5-71.1 44.3-111.1L607.5 190.10000000000002c-53.5-50.7-137.4-50.7-191 0L84.2 504.9C42 544.9 70.3 616 128.5 616z"  horiz-adv-x="1024" />

    
    <glyph glyph-name="playlist" unicode="&#58898;" d="M149.5 512.8l176.7 104.1c6.9 4.1 7.1 14 0.3 18.3L149.8 746.3c-7.1 4.5-16.4-0.6-16.4-9.1V522c0-8.2 9-13.4 16.1-9.2zM890.6 43H133.4c-6.3 0-11.5-5.2-11.5-11.5s5.2-11.5 11.5-11.5h757.2c6.3 0 11.5 5.2 11.5 11.5s-5.2 11.5-11.5 11.5zM890.6 336.6H133.4c-6.3 0-11.5-5.2-11.5-11.5s5.2-11.5 11.5-11.5h757.2c6.3 0 11.5 5.2 11.5 11.5s-5.2 11.5-11.5 11.5zM483 607.2h407.5c6.3 0 11.5 5.2 11.5 11.5s-5.2 11.5-11.5 11.5H483c-6.3 0-11.5-5.2-11.5-11.5 0-6.4 5.2-11.5 11.5-11.5z"  horiz-adv-x="1024" />

    
    <glyph glyph-name="search" unicode="&#58899;" d="M953.5-20.299999999999955L737.4 195.79999999999995c-0.7 0.7-1.8 0.5-2.5 1 57.2 66.8 93.1 152.5 93.1 247.3 0 211-171 382-382 382s-382-171-382-382 171-382 382-382c100.6 0 191.3 39.7 259.6 103.2 0.3-0.3 0.1-0.7 0.4-1l216.1-216.1c4.3-4.3 10-6.5 15.7-6.5s11.4 2.2 15.7 6.5c8.7 8.8 8.7 22.8 0 31.5zM446 106.70000000000005c-186.1 0-337.5 151.4-337.5 337.5S259.9 781.7 446 781.7s337.5-151.4 337.5-337.5S632.1 106.70000000000005 446 106.70000000000005z"  horiz-adv-x="1024" />

    
    <glyph glyph-name="arrow-left" unicode="&#58900;" d="M702.5-64c-6.8 0-13.5 2.6-18.7 7.7l-385 385c-26.1 26.2-26 68.7 0 94.7L699.6 824.3c10.3 10.3 27 10.3 37.4 0s10.3-27 0-37.4L336.2 386.1c-5.5-5.5-5.5-14.5 0.1-20.1l384.9-384.9c10.3-10.3 10.3-27 0-37.4-5.2-5.1-11.9-7.7-18.7-7.7z"  horiz-adv-x="1024" />

    
    <glyph glyph-name="volume" unicode="&#58901;" d="M237.7 530.4v-289.1c0-28.9 23.5-52.4 52.5-52.4h80.9v25.2h-80.9c-15 0-27.2 12.2-27.2 27.2V530.4c0 15 12.2 27.2 27.2 27.2h80.9v25.2h-80.9c-28.9 0-52.5-23.5-52.5-52.4zM758.6 741.7c-17.4 9.3-37.5 8.2-53.8-2.6L484.9 592.5c-14.6-9.8-23.4-26.1-23.4-43.6v-326.3c0-17.3 8.6-33.5 22.9-43.3l219.8-150.1c8.9-6.1 19.2-9.2 29.6-9.2 8.4 0 16.8 2 24.5 6.1 17.2 9.1 28 26.8 28 46.4v623c0 19.6-10.4 36.9-27.7 46.2z m2.4-669.3c0-10.2-5.4-19.3-14.5-24-9.1-4.8-19.6-4.1-28 1.6L498.6 200c-7.4 5.1-11.9 13.5-11.9 22.5V548.9c0 9.1 4.5 17.6 12.1 22.7l219.8 146.6c4.6 3.1 9.8 4.6 15 4.6 4.4 0 8.8-1.1 12.9-3.3 9-4.8 14.4-13.8 14.4-24v-623.1z"  horiz-adv-x="1024" />

    
    <glyph glyph-name="pause" unicode="&#58902;" d="M635.1 748h188.5v-728H635.1zM200.4 748h188.5v-728H200.4z"  horiz-adv-x="1024" />

    
    <glyph glyph-name="local-music" unicode="&#58903;" d="M216.5-53.60000000000002C132.4-53.60000000000002 64 14.799999999999955 64 98.89999999999998s68.4 152.5 152.5 152.5S369 183 369 98.89999999999998s-68.4-152.5-152.5-152.5z m0 261.4c-60.1 0-108.9-48.8-108.9-108.9 0-60.1 48.8-108.9 108.9-108.9s108.9 48.8 108.9 108.9c0 60.1-48.8 108.9-108.9 108.9zM807.5 14.700000000000045c-84.1 0-152.5 68.4-152.5 152.5s68.4 152.5 152.5 152.5S960 251.20000000000005 960 167.10000000000002s-68.4-152.4-152.5-152.4z m0 261.4c-60.1 0-108.9-48.8-108.9-108.9 0-60.1 48.8-108.9 108.9-108.9s108.9 48.8 108.9 108.9c0 60-48.8 108.9-108.9 108.9zM369 98.89999999999998h-43.6V571.6c0 49.7 24 95.5 64.2 122.5 85.5 57.7 260.1 149.7 466.8 122.5 59-7.9 103.5-59.3 103.5-119.6v-529.9h-43.6v530c0 38.5-28.3 71.5-65.7 76.4-192.3 26-356.3-61.3-436.7-115.4-28.2-19-45-51.3-45-86.5v-472.7zM355.7 472.9l-17 40.2c13.9 5.9 342.4 143.7 599.5 143.7v-43.6c-248.4 0-579.2-138.8-582.5-140.3z"  horiz-adv-x="1024" />

    
    <glyph glyph-name="next" unicode="&#58904;" d="M330.1 736.1L742.2 399V660.4h36.7v-534.1h-36.7V369L330.1 31.899999999999977c-34-27.8-84.9-3.6-84.9 40.3V695.9c-0.1 43.9 50.9 68 84.9 40.2z"  horiz-adv-x="1024" />

    
    <glyph glyph-name="sound" unicode="&#58905;" d="M514.1 466.8l-0.4 28.7c2.5 0.1 247.6 5.2 247.6 132.1v91.8H513.9c-59.9 0-104.6-56.2-104.6-106.4h-28.7c0 63.9 54.7 135.1 133.3 135.1h261.7V738h14.3v-18.5h-23.9l23.9-91.8c0.1-155.2-264.5-160.7-275.8-160.9zM290.4 281.70000000000005h-28.7V467.4c-56.9 3-261.7 23.7-261.7 160.2V737.9h14.3V748h261.7c78.6 0 133.3-71.2 133.3-135.1h-28.7c0 50.2-44.7 106.4-104.6 106.4H4.8l23.9-91.8c0-127.1 245.1-132 247.6-132.1l14.1-0.2v-213.5zM371.2 27.600000000000023C34.8 27.600000000000023 34.8 225.79999999999995 34.8 400.6h28.7c0-208 21.4-344.3 307.7-344.3v-28.7zM992.4 20H558.8c-100.1 0-181.2 81.1-181.2 181.2S458.7 382.4 558.8 382.4h433.7c100.1 0 181.2-81.1 181.2-181.2-0.1-100.1-81.2-181.2-181.3-181.2zM462.7 101.39999999999998V300.9H489.8l104.8-156.6V300.9h25.3v-199.5H592.8L488 258.20000000000005v-156.8h-25.3zM664.8 101.39999999999998V300.9h144.2v-23.5H691.2v-61.1h110.4v-23.4H691.2V125h122.5v-23.5H664.8zM884.9 101.39999999999998l-52.9 199.5h27.1l30.3-130.8c3.3-13.7 6.1-27.3 8.4-40.8 5.1 21.3 8.1 33.6 9 36.9l38 134.7h31.8l28.6-101c7.2-25 12.3-48.6 15.5-70.6 2.5 12.6 5.9 27.1 9.9 43.4l31.3 128.2h26.5L1033.8 101.39999999999998h-25.4l-42 152c-3.5 12.7-5.6 20.5-6.3 23.4-2.1-9.2-4-17-5.9-23.4l-42.3-152h-27z"  horiz-adv-x="1173" />

    
    <glyph glyph-name="prev" unicode="&#58906;" d="M693.9 736.1L281.8 399V660.4h-36.7v-534.1h36.7V369l412.1-337.2c34-27.8 84.9-3.6 84.9 40.3V695.9c0.1 43.9-50.9 68-84.9 40.2z"  horiz-adv-x="1024" />

    
    <glyph glyph-name="general-song" unicode="&#58907;" d="M514 192.29999999999995h3.8c100.9 0 183 82.1 183 183.1v27c0 7.9-6.5 14.4-14.4 14.4s-14.4-6.5-14.4-14.4v-27c0-85.1-69.2-154.3-154.2-154.3H514c-85 0-154.2 69.2-154.2 154.3V574.8c0 85 69.2 154.2 154.2 154.2h3.8c23 0 45.7-5 65.6-14.4 7-3.3 15.7-0.2 19.2 6.9 3.4 7.2 0.3 15.8-6.9 19.2-23.8 11.2-50.7 17.1-77.9 17.1H514c-100.9 0-183-82.1-183-183v-199.5c0-100.9 82.1-183 183-183zM818.3 395.2c0 8.7-7.1 15.7-15.7 15.7-8.7 0-15.7-7.1-15.7-15.7 0-151.5-123.3-274.8-274.8-274.8S237.2 243.70000000000005 237.2 395.2c0 8.7-7.1 15.7-15.7 15.7-8.7 0-15.7-7.1-15.7-15.7 0-153.4 113.4-280.9 260.9-302.9v-110.9c0-25.1 20.3-45.4 45.4-45.4 25.1 0 45.4 20.3 45.4 45.4V92.29999999999995c147.3 22.1 260.8 149.5 260.8 302.9zM521.3 526.9c0-37.1 39.5-66.1 89.8-66.1s89.8 29.1 89.8 66.1v143c1.8-0.3 3.7-0.2 5.7 0.2C789 688.8 805.7 775.4 803 818.5c-0.2 3.8-2 7.4-5 10-2.9 2.5-6.6 4-10.6 3.4-79.7-6.6-112-59.9-113.4-62.2-1.3-2.2-2-4.7-2-7.3v-186.6c-15.9 10.7-37.2 17.2-61 17.2-50.3 0-89.7-29.1-89.7-66.1zM700.8 758c6.5 8.8 28.8 34.7 73.2 43.1-1.8-28.8-13-88.7-73.2-102.9V758z m-28.7-231.1c0-20.3-28-37.4-61-37.4-33.1 0-61 17.1-61 37.4 0 20.3 28 37.4 61 37.4 33-0.1 61-17.2 61-37.4z"  horiz-adv-x="1024" />

    
    <glyph glyph-name="minimize" unicode="&#58908;" d="M933.7 357.70000000000005H90.2C75.7 357.70000000000005 64 369.5 64 384s11.7 26.3 26.2 26.3h843.4c14.5 0 26.3-11.8 26.3-26.3s-11.7-26.3-26.2-26.3z"  horiz-adv-x="1024" />

    
    <glyph glyph-name="cycle" unicode="&#58909;" d="M913.6 348.29999999999995v-7.4c0-73.5-28.5-142.4-80.3-194.2-51.1-51.1-121.8-80.3-194.2-80.3H384c-150.9 0-273.6 123.2-273.6 274.5 0 73.3 28.5 142.2 80.6 194.3 50.9 51.7 119.5 80.3 193 80.3h255.1c15.3 0 30.7-1.5 45.8-4.1v-106l121.4 121.4L684.9 748v-90.4c-15.2 2.3-30.5 4.2-45.8 4.2H384c-86.1 0-166.4-33.4-226-94-60.6-60.6-94-141.2-94-226.9C64 163.89999999999998 207.6 20 384 20h255.1c84.6 0 167.3 34.2 227 93.9 60.6 60.6 93.9 141.2 93.9 227v7.4h-46.4zM564.6 194.5V481.1H542c-6.1-12.3-16.5-25.1-31.2-38.2-14.7-13.1-31.8-24.3-51.4-33.5v-33.9c10.9 4 23.2 10.1 36.9 18.1 13.7 8.1 24.8 16.1 33.2 24.1v-223.3h35.1z"  horiz-adv-x="1024" />

    
    <glyph glyph-name="setting" unicode="&#58910;" d="M568.7-64l-121.3 0.9c-15.8 1.5-28.4 5.4-40.9 12.5-25 14-43.7 38.5-49.9 65.7-5.3 22.7-19.4 48.2-25.1 51.6-6.2 3.2-35.8 1.8-56.6-5-26.3-8.7-56.1-5.6-81.3 8.7-12.2 6.8-22.5 15.8-30.7 26.6l-3 4.2-61.3 100.4c-20.8 43.1-8.3 95.3 28.3 122.7 3.4 2.6 11.1 9.9 13.8 14.7 14.5 25.9 5.2 58.8-20.7 73.5l-3.7 2.1c-36.2 20.2-50.1 64.3-34.8 109.8 4 11.7 18.1 51.3 35 81.6 16.3 28.9 41.1 60 51 72 31.7 37.8 77.3 48.4 113.9 27.1 14.7-8.3 29.3-9.9 43.1-6.1 13.9 4 25.4 13 32.4 25.6 2.5 4.5 4.8 14.6 5.5 20.1 4.2 45.1 41.9 82.7 87.5 87.1l5.6 0.3 123.7-1.3c44.1-4.8 79.8-35.5 90.2-76.4 5.6-21.6 19.6-46.1 25.2-49.4 5.8-3 33.2-2.5 54.8 3.9 38.8 11.8 85.4-3.3 110.3-35.9l3-4.3 62.9-102.4c20.7-42.8 8.4-94.9-28-122.2-4.8-3.8-11.7-10.7-14.1-14.9-7-12.6-8.8-27.2-4.9-41.1 4-13.9 13-25.4 25.6-32.4l3.2-1.9c35.9-19.3 50.5-64.6 35.2-110v-0.1c-2.8-8-17.2-49.7-34.9-81.5-18.8-33.4-48.4-68.8-51.7-72.7-30.8-36.6-75.8-47.7-111.8-27.2l-3.6 2c-25.6 14.4-58.8 5.2-73.5-20.7-2.4-4.4-4.7-14.6-5.4-19.8-4.2-45.3-41.9-83-87.5-87.4l-5.5-0.4zM317.9 95.70000000000005c10.7 0 20.6-1.4 27.1-5.1 18-10.1 33.9-50.2 38.3-69.4 4.6-19.7 18.3-37.6 36.6-47.9 9-5.1 18.2-8 28.9-9l119.1-0.9 4.1 0.3c32.3 3.2 59.3 30.2 62.4 62.9 0.1 0.5 2.3 18.7 8.7 30.3 22.1 39.3 71.9 52.9 110.9 31.3l3.6-2.1c24.3-13.6 55.3-5.2 77.2 21 3.2 3.8 31.3 37.3 48.8 68.5 16.5 29.7 30.3 69.3 32.8 77 11.1 33 2.1 64.1-22.5 77.3l-3.4 1.9c-18.9 10.5-32.5 27.9-38.4 48.8-5.9 20.9-3.3 42.9 7.4 61.9 6.3 11.3 19.7 22 21.2 23.2 26.4 19.8 35.2 57.3 20.7 87.3l-64 103.6c-17.6 23.1-52.4 34.3-80.3 25.8-20.9-6.2-59.4-11-76.2-1.5-17 9.5-32.9 45.3-38.2 66.5-7.6 29.9-33.8 52.3-65.3 55.8l-121.3 1.2-4.1-0.3c-32.3-3.2-59.4-30.1-62.4-62.6-0.1-1.1-2.3-19.1-8.8-30.6-10.7-19-28-32.7-49-38.5-20.7-5.9-42.9-3.4-61.9 7.4-27.7 15.9-58.4 8-81.1-19.2-9.7-11.7-33.3-41.3-48.5-68.2-15.8-28.3-29.2-66-32.9-76.8-11-32.7-2.1-63.7 22.2-77.2l3.7-2.1c39.1-21.9 53.1-71.7 31.2-110.8-5.6-9.8-17-19.9-21-23-26.6-19.9-35.5-57.6-20.9-87.8L185.1 113c5.6-7.4 13-13.9 21.9-18.9 18.6-10.5 40.2-12.7 59.3-6.4 11.5 3.8 33 8 51.6 8z m611.7 152.4h0.3-0.3zM512.1 222.60000000000002c-89 0-161.4 72.5-161.4 161.4s72.4 161.4 161.4 161.4S673.5 473 673.5 384 601 222.60000000000002 512.1 222.60000000000002z m0 295.3c-73.8 0-133.9-60.1-133.9-133.9 0-73.9 60.1-133.9 133.9-133.9C586 250.10000000000002 646 310.20000000000005 646 384c0 73.8-60.1 133.9-133.9 133.9z"  horiz-adv-x="1024" />

    
    <glyph glyph-name="amplification" unicode="&#58911;" d="M763.4 2.2000000000000455H124.7C91.2 2.2000000000000455 64 29.399999999999977 64 63V582.7c0 33.5 27.2 60.7 60.7 60.7h638.7c33.5 0 60.7-27.2 60.7-60.7V63c0-33.6-27.2-60.8-60.7-60.8zM124.7 603.5c-11.5 0-20.8-9.4-20.8-20.8V63c0-11.5 9.4-20.8 20.8-20.8h638.7c11.5 0 20.8 9.4 20.8 20.8V582.7c0 11.5-9.4 20.8-20.8 20.8H124.7zM940 270.6c-11 0-20 9-20 20V632c0 51.8-42.1 93.9-93.9 93.9H403.3c-11 0-20 9-20 20s9 20 20 20h422.9c73.8 0 133.8-60 133.8-133.8v-341.4c0-11.1-9-20.1-20-20.1z"  horiz-adv-x="1024" />

    
    <glyph glyph-name="close" unicode="&#58912;" d="M936.2-64c-6.1 0-12.2 2.3-16.8 7L71 791.3c-9.3 9.3-9.3 24.3 0 33.6s24.3 9.3 33.6 0L953-23.299999999999955c9.3-9.3 9.3-24.3 0-33.6-4.6-4.7-10.7-7.1-16.8-7.1zM87.8-64c-6.1 0-12.2 2.3-16.8 7-9.3 9.3-9.3 24.3 0 33.6L919.4 825c9.3 9.3 24.3 9.3 33.6 0s9.3-24.3 0-33.6L104.6-57c-4.6-4.6-10.7-7-16.8-7z"  horiz-adv-x="1024" />

    
    <glyph glyph-name="yinle-01" unicode="&#58892;" d="M216.5-53.6C132.4-53.6 64 14.8 64 98.9s68.4 152.5 152.5 152.5S369 183 369 98.9s-68.4-152.5-152.5-152.5z m0 261.4c-60.1 0-108.9-48.8-108.9-108.9 0-60.1 48.8-108.9 108.9-108.9s108.9 48.8 108.9 108.9c0 60.1-48.8 108.9-108.9 108.9zM807.5 14.7c-84.1 0-152.5 68.4-152.5 152.5s68.4 152.5 152.5 152.5S960 251.2 960 167.1s-68.4-152.4-152.5-152.4z m0 261.4c-60.1 0-108.9-48.8-108.9-108.9 0-60.1 48.8-108.9 108.9-108.9s108.9 48.8 108.9 108.9c0 60-48.8 108.9-108.9 108.9zM369 98.9h-43.6V571.6c0 49.7 24 95.5 64.2 122.5 85.5 57.7 260.1 149.7 466.8 122.5 59-7.9 103.5-59.3 103.5-119.6v-529.9h-43.6v530c0 38.5-28.3 71.5-65.7 76.4-192.3 26-356.3-61.3-436.7-115.4-28.2-19-45-51.3-45-86.5v-472.7zM355.7 472.9l-17 40.2c13.9 5.9 342.4 143.7 599.5 143.7v-43.6c-248.4 0-579.2-138.8-582.5-140.3z"  horiz-adv-x="1024" />

    
    <glyph glyph-name="menu-playlist" unicode="&#58881;" d="M764.4 71.89999999999998h-67.8V722.3l33.9 33.9c135 0 170.6 72.3 172.1 75.4l62-27.5c-2-4.5-46.1-101.7-200.2-114.3v-617.9zM593.8-63.60000000000002c-94 0-170.6 60.8-170.6 135.5 0 74.6 76.6 135.4 170.6 135.4s170.6-60.8 170.6-135.4c0-74.7-76.6-135.5-170.6-135.5z m0 203.1c-55.7 0-102.8-30.9-102.8-67.6 0-36.7 47.1-67.7 102.8-67.7s102.8 30.9 102.8 67.7c0 36.7-47.1 67.6-102.8 67.6zM59.4 702.4h501.2v-67.8H59.4zM59.4 507.7h501.2v-67.8H59.4zM59.4 313h501.2v-67.8H59.4z"  horiz-adv-x="1024" />

    
    <glyph glyph-name="download" unicode="&#58882;" d="M829.7 727.4l-44.8-44.8c69.2-69.2 112.4-165.1 112.4-270.4 0-211.4-172.1-383.6-382.8-383.6C303.1 28.700000000000045 131 200.79999999999995 131 412.3c0 110.8 47.2 210.6 123.4 279.8l-43.2 47.2c-88-81.7-143-198.1-143-327 0-246.8 199.6-446.4 446.4-446.4 246 0 445.7 199.6 445.7 446.4-0.1 122.6-49.6 234.2-130.6 315.1zM514.2 216.39999999999998c-3.7 0-7.3 0.7-10.9 2-12.4 4.5-20.6 16.3-20.6 29.5V739.2h62.9v-406L639 442.7l47.9-40.8-148.8-174.4c-6.1-7.1-14.9-11.1-23.9-11.1zM491.3 226.39999999999998l-164 174.3 45.8 43.1L537 269.5z"  horiz-adv-x="1024" />

    
    <glyph glyph-name="cardiac" unicode="&#58883;" d="M508.8-40.10000000000002c-14.1 0-29.3 8-43.8 23.4C32.2 246.29999999999995 53.6 514.9 70.5 591.1 96.8 709.4 187.3 793.6 301 805.6c109.2 11.6 173.4-18.4 211.1-54.5 37.6 36.3 102.2 66.1 211 54.5 113.7-12 204.2-96.2 230.4-214.5 17-76.2 38.4-344.8-394.5-607.8-15.6-16.5-32.1-24.2-46.9-23.3-1.1-0.1-2.2-0.1-3.3-0.1z m-0.1 61.3c-3.5 0-7.7-0.7-12-3.2h30.6c-4.7 2.7-9.4 3.2-13.2 3.2 0.8-0.7 1.5-1.2 2-1.5-0.9 0.5-2.3 1-4.2 1.3-1.9-0.3-3.4-0.7-4.3-1.3 0.5 0.3 1.2 0.8 2.1 1.5h-1zM347.5 746.9c-12.6 0-26-0.7-40.1-2.2-87.1-9.3-156.6-74.7-177.1-166.8-14.7-66.5-31.6-301.9 370.4-544.5l7.3-6.1c1.2-1.3 2.6-2.8 4.1-4.1 1.4 1.3 2.8 2.8 4 4.1l7.3 6.1c402 242.6 385.1 478 370.3 544.4-20.5 92.1-90 157.6-177.1 166.8-87.3 9.3-147.5-10.3-179-58.1h-51.2c-26.4 40.2-73 60.4-138.9 60.4zM596.8 335.1c-82.8 0-112.2 53.5-133.6 92.5-21.3 38.8-33.3 57.3-72.5 57.3-97.9 0-132.3-84.5-132.7-85.4l-57 22.4c1.9 5.1 50.4 124.3 189.7 124.3 77.2 0 105.5-51.5 126.1-89.1 22-40 35.5-60.8 80-60.8 101.7 0 119.8 76.3 119.9 77.1l59.9-13.3c-9.7-43.1-59.6-125-179.8-125z"  horiz-adv-x="1024" />

    
    <glyph glyph-name="cloud" unicode="&#58884;" d="M299.4 518.7c-129.7 0-235-105.3-235-235 0-9.1 0.7-17.4 1.4-25.8l55.1 6.3c0 6.3-0.7 12.6-0.7 19.5 0 99 80.2 179.2 179.2 179.2 66.9 0 124.8-36.3 155.5-90.7l48.1 27.2c-39.7 71.2-115.7 119.3-203.6 119.3zM752 49.10000000000002H288.1c-3.5 0-6.8 0.7-9.9 1.8-120.5 10.9-213.6 111.6-213.6 233 0 106.2 71.5 198.4 172.5 226.2 30.4 122 139.9 208.7 267 208.7 143.5 0 261.8-110.2 274.7-250.3C880.6 453.7 959.6 365.20000000000005 959.6 260c0-112.5-90.4-205.9-202.5-210.5-1.6-0.2-3.3-0.4-5.1-0.4zM296 105h451.6c1.2 0.2 2.5 0.3 3.7 0.3 84 1.5 152.3 71 152.3 154.8s-68.3 153.3-152.3 154.8c-15.2 0.3-27.4 12.7-27.4 27.9 0 0.6 0.1 1.2 0.1 1.8-0.8 120.6-99.2 218.4-220 218.4-106.4 0-197.2-76.1-216-180.9-2-11.4-10.9-20.4-22.2-22.5-84.3-16.1-145.5-90-145.5-175.7 0-94.5 74.3-172.6 169.2-177.9 2.3-0.1 4.5-0.4 6.5-1z"  horiz-adv-x="1024" />

    
    <glyph glyph-name="radio" unicode="&#58885;" d="M517.4 648.9c-147.1 0-267.9-120-267.9-267.9 0-70.5 27.9-135.5 73.6-183.5l43.4 43.4c-34.1 36.4-55 85.9-55 140.2 0 113.8 92.9 206 206 206 113.8 0 206-92.1 206-206 0-73.6-37.9-137.8-96-174.2l33.3-51.9c75.1 47.2 124.7 130.9 124.7 226.1-0.2 147.8-120.2 267.8-268.1 267.8zM512 834C265 834 64.4 633.4 64.4 386.4c0-123.1 50.3-235.4 131.6-315.9l43.4 43.4c-69.7 69.7-113.1 166.5-113.1 272.6C126.4 599.3 299.1 772 512 772c212.2 0 385.6-172.7 385.6-385.6 0-135.5-70.5-255.5-177.3-324.4l33.3-51.9c123.9 79.8 206 219.1 206 376.3C959.6 633.4 759 834 512 834zM398.3-66c-81.2 0-144.8 50-144.8 113.7s63.6 113.7 144.8 113.7c81.1 0 144.7-49.9 144.7-113.7S479.4-66 398.3-66z m0 165.4c-44.2 0-82.8-24.1-82.8-51.6 0-27.6 38.6-51.7 82.8-51.7 44.1 0 82.7 24.1 82.7 51.7 0 27.5-38.6 51.6-82.7 51.6zM543 47.799999999999955h-62V481.3l61 7.7c8.5-32.9 41.7-123.2 92.5-146.2L609 286.4c-26.5 11.9-48.3 32.7-65.9 56.2v-294.8z"  horiz-adv-x="1024" />

    
    <glyph glyph-name="mv" unicode="&#58886;" d="M892.7 196H131.3c-35.9 0-65.2 29.3-65.2 65.2V506.8c0 35.9 29.3 65.2 65.2 65.2h761.4c35.9 0 65.2-29.2 65.2-65.2v-245.5c0-36-29.2-65.3-65.2-65.3zM131.3 538.1c-17.3 0-31.4-14-31.4-31.3v-245.5c0-17.3 14-31.4 31.4-31.4h761.4c17.3 0 31.3 14 31.3 31.4V506.8c0 17.3-14 31.3-31.3 31.3H131.3zM200.5 268.9V507.8h47.6l56.6-169.2c5.2-15.7 9-27.5 11.4-35.4 2.7 8.7 6.9 21.5 12.7 38.3L386 507.7h42.5v-238.9H398V468.9L328.6 269h-28.5L231 472.3v-203.4h-30.5zM547.8 268.9l-92.6 238.9h34.2l62.1-173.5c5-13.9 9.2-26.9 12.5-39.1 3.7 13.1 8 26.1 12.9 39.1l64.5 173.5h32.3l-93.5-238.9h-32.4zM736.8 476.5V293l129.7 91z"  horiz-adv-x="1024" />

    
    <glyph glyph-name="collection" unicode="&#58887;" d="M441.1 405c21.3 0 42.6-2.4 62.4-7.1l59.2 48.2c-2.4 0.9-4.8 1.8-7.2 2.6 52.9 38.6 87.4 101 87.4 171.3 0 116.7-95.1 211.8-211.8 211.8-116.7 0-211.8-95.1-211.8-211.8 0-73.3 37.5-138 94.2-176.1C184.5 392.9 93 266.79999999999995 93 120c0-53.7 11.8-105 34.7-150l65.5 11.1c-23.7 41-37.1 88.4-37.1 138.9 0 157.1 127.9 285 285 285z m-10 363.6c81.9 0 148.6-66.6 148.6-148.5S513 471.4 431.1 471.4 282.5 538.1 282.5 620s66.6 148.6 148.6 148.6zM931.1 239.70000000000005l-17.5 53.8-159.1 23.1-71.2 144.1h-56.6l-71.2-144.1-159-23.1-17.5-53.8 115.1-112.2-27.2-158.4 45.9-33.3L655 10.600000000000023l142.2-74.9 45.9 33.3-27.2 158.4 115.2 112.3zM770 21.5l-100.3 52.8h-29.4L540 21.5l19.2 111.7-9.1 27.9-81.2 79.2 112.2 16.3 23.7 17.3L655 375.5l50.2-101.6 23.7-17.3 112.2-16.3-81.3-79.2-9.1-27.9L770 21.5z"  horiz-adv-x="1024" />

    
    <glyph glyph-name="add" unicode="&#58888;" d="M960.5 427.2H555.2V832.5h-86.3v-405.3H63.5v-86.3h405.4v-405.4h86.3V340.9h405.3z"  horiz-adv-x="1024" />

    
    <glyph glyph-name="dianzan-01" unicode="&#58889;" d="M771.7-67.2H152.5c-48.8 0-88.4 39.7-88.4 88.4V403.6c0 48.8 39.7 88.4 88.4 88.4h176.7c19.7 0 61.4 34 120.3 261.6l5 19.4c10.8 40.7 42.3 65.2 79.9 61.9 42.1-2.7 90.3-40.5 98.1-99.2 6.8-51.7-5.5-126.2-16.2-176.3h232.2c111.3 0 111.3-87.2 111.3-164.2 0.1-108.5-13.5-462.4-188.1-462.4zM152.5 433c-16.2 0-29.4-13.2-29.4-29.4v-382.4c0-16.2 13.2-29.4 29.4-29.4h619.1c102.2 0 129.2 263.8 129.2 403.3 0 105.1-14.2 105.1-52.2 105.1H595.8c-13.2 0-25.5 5.9-33.6 16.2-7.9 10-10.8 23-7.8 35.6 6.4 27.7 26.9 122.3 19.8 175.8-4 29.9-27.8 47.2-43.4 48.2-4-0.1-14 1.1-19.1-18.1l-5-19C468.4 590.9 420 433 329.2 433H152.5z m459.3 105.8v0zM299.7 462.5h59v-500.2h-59z"  horiz-adv-x="1024" />

    
    <glyph glyph-name="sq" unicode="&#58890;" d="M876.7 143.89999999999998H147.3c-45.9 0-83.3 37.4-83.3 83.3V540.8c0 45.9 37.4 83.3 83.3 83.3h729.4c45.9 0 83.3-37.4 83.3-83.3v-313.6c0-45.9-37.4-83.3-83.3-83.3zM147.3 580.8c-22.1 0-40-17.9-40-40v-313.6c0-22.1 17.9-40 40-40h729.4c22.1 0 40 17.9 40 40V540.8c0 22.1-17.9 40-40 40H147.3zM223.2 335.1l38.1 3.3c1.8-15.2 6-27.8 12.6-37.6s16.8-17.7 30.7-23.7c13.9-6 29.5-9 46.9-9 15.4 0 29 2.3 40.8 6.9 11.8 4.6 20.6 10.9 26.3 18.8 5.8 8 8.6 16.7 8.6 26.1 0 9.6-2.7 17.9-8.3 25.1-5.6 7.2-14.7 13.1-27.5 18-8.2 3.2-26.3 8.1-54.3 14.9-28 6.7-47.6 13-58.9 19-14.6 7.6-25.4 17.1-32.6 28.4-7.2 11.3-10.7 24-10.7 38 0 15.4 4.3 29.8 13.1 43.2 8.8 13.4 21.5 23.6 38.3 30.5 16.8 7 35.5 10.4 56 10.4 22.6 0 42.6-3.6 59.8-11 17.3-7.3 30.6-18 39.9-32.1 9.3-14.1 14.2-30.2 15-48.1l-38.7-2.9c-2.1 19.3-9.1 33.8-21.2 43.7-12 9.9-29.7 14.8-53.1 14.8-24.4 0-42.3-4.5-53.4-13.4-11.2-9-16.8-19.8-16.8-32.4 0-11 4-20 11.9-27.1 7.8-7.1 28.1-14.3 60.9-21.7s55.4-13.9 67.5-19.5c17.8-8.2 30.9-18.5 39.4-31.1 8.4-12.6 12.7-27.1 12.7-43.4 0-16.3-4.6-31.6-13.9-45.9s-22.7-25.5-40.1-33.5c-17.4-8-37-12-58.8-12-27.6 0-50.8 4.1-69.4 12.1-18.7 8.1-33.3 20.2-44 36.4-10.7 16.1-16.3 34.3-16.8 54.8zM752.5 269.70000000000005c18.7-12.9 36-22.3 51.8-28.3l-11.9-28.1c-21.9 7.9-43.7 20.4-65.5 37.5-22.6-12.6-47.6-18.9-74.9-18.9-27.6 0-52.7 6.7-75.1 20-22.5 13.3-39.8 32.1-51.9 56.2-12.2 24.2-18.3 51.3-18.3 81.6 0 30.1 6.1 57.6 18.4 82.3 12.2 24.7 29.5 43.5 52.1 56.4 22.5 12.9 47.8 19.4 75.7 19.4 28.1 0 53.6-6.7 76.1-20.1 22.6-13.4 39.9-32.1 51.8-56.2 11.8-24.1 17.8-51.2 17.8-81.5 0-25.1-3.8-47.7-11.4-67.8-7.8-20.2-19.3-37.6-34.7-52.5z m-88.9 51.6c23.3-6.5 42.5-16.3 57.6-29.2 23.7 21.7 35.6 54.2 35.6 97.6 0 24.7-4.2 46.3-12.6 64.7-8.4 18.5-20.7 32.8-36.8 43-16.1 10.2-34.3 15.3-54.4 15.3-30.1 0-55.1-10.3-75-30.9-19.8-20.6-29.8-51.4-29.8-92.3 0-39.7 9.8-70.1 29.5-91.3 19.6-21.3 44.7-31.9 75.2-31.9 14.4 0 28 2.7 40.8 8.1-12.7 8.2-26 14-40 17.5l9.9 29.4z"  horiz-adv-x="1024" />

    
    <glyph glyph-name="vip" unicode="&#58891;" d="M876.7 143.89999999999998H147.2c-45.9 0-83.3 37.4-83.3 83.3V540.8c0 45.9 37.4 83.3 83.3 83.3h729.5c45.9 0 83.3-37.4 83.3-83.3v-313.7c0.1-45.9-37.3-83.2-83.3-83.2z m-729.5 437c-22.1 0-40-17.9-40-40.1v-313.7c0-22.1 17.9-40 40-40h729.5c22.1 0 40.1 17.9 40.1 40V540.8c0 22.1-17.9 40.1-40.1 40.1H147.2zM292.4 236.89999999999998L174.1 542.1h43.7l79.3-221.7c6.4-17.8 11.7-34.4 16-50 4.7 16.7 10.2 33.3 16.5 50L412 542.1h41.2L333.8 236.89999999999998h-41.4zM496.4 236.89999999999998V542.1h40.4v-305.2h-40.4zM608 236.89999999999998V542.1h115.1c20.3 0 35.8-0.9 46.4-2.9 15-2.5 27.5-7.3 37.7-14.2 10.1-7 18.3-16.8 24.5-29.5 6.2-12.6 9.2-26.5 9.2-41.6 0-25.9-8.2-47.9-24.8-65.9-16.5-18-46.4-27-89.5-27h-78.3v-124.1H608zM648.3 397h78.9c26.1 0 44.6 4.9 55.6 14.6 10.9 9.7 16.4 23.4 16.4 41 0 12.8-3.2 23.7-9.7 32.8-6.5 9.1-15 15.1-25.5 18-6.8 1.8-19.4 2.7-37.7 2.7h-78.1V397z"  horiz-adv-x="1024" />

    
    <glyph glyph-name="like" unicode="&#58893;" d="M508.8-39.700000000000045c-14.1 0-29.2 8-43.7 23.4C32.6 246.39999999999998 54 514.7 71 590.9 97.2 709.1 187.6 793.2 301.2 805.2c109.1 11.6 173.2-18.4 210.9-54.5 37.6 36.3 102.1 66 210.8 54.5 113.6-12 204-96.1 230.2-214.3 17-76.2 38.3-344.5-394.1-607.2-15.5-16.5-32.1-24.1-46.9-23.2-1.1-0.1-2.2-0.2-3.3-0.2z m-0.1 61.3c-3.5 0-7.7-0.7-12-3.2h30.6c-4.7 2.7-9.4 3.2-13.2 3.2 0.8-0.7 1.5-1.2 2-1.5-0.9 0.5-2.3 1-4.2 1.3-1.9-0.3-3.4-0.7-4.3-1.3 0.5 0.3 1.2 0.8 2.1 1.5h-1z m-161 725c-12.6 0-26-0.7-40.1-2.2-87-9.3-156.4-74.7-176.9-166.7-14.7-66.4-31.6-301.5 370-543.9l7.3-6.1c1.2-1.3 2.6-2.8 4.1-4.1 1.4 1.3 2.8 2.8 4 4.1l7.3 6.1c401.6 242.4 384.7 477.5 370 543.9-20.5 92-89.9 157.4-176.9 166.7-87.2 9.3-147.3-10.3-178.8-58.1h-51.1c-26.6 40-73.1 60.3-138.9 60.3z"  horiz-adv-x="1024" />

    


  </font>
</defs>
</svg>
