<?xml version="1.0" standalone="no"?><!DOCTYPE svg PUBLIC "-//W3C//DTD SVG 1.1//EN" "http://www.w3.org/Graphics/SVG/1.1/DTD/svg11.dtd"><svg t="1627647230201" class="icon" viewBox="0 0 1024 1024" version="1.1" xmlns="http://www.w3.org/2000/svg" p-id="47576" width="48" height="48" xmlns:xlink="http://www.w3.org/1999/xlink"><defs><style type="text/css">@font-face { font-family: feedback-iconfont; src: url("//at.alicdn.com/t/font_1031158_1uhr8ri0pk5.eot?#iefix") format("embedded-opentype"), url("//at.alicdn.com/t/font_1031158_1uhr8ri0pk5.woff2") format("woff2"), url("//at.alicdn.com/t/font_1031158_1uhr8ri0pk5.woff") format("woff"), url("//at.alicdn.com/t/font_1031158_1uhr8ri0pk5.ttf") format("truetype"), url("//at.alicdn.com/t/font_1031158_1uhr8ri0pk5.svg#iconfont") format("svg"); }
</style></defs><path d="M443.733333 402.773333c-95.573333 0-170.666667 78.506667-167.253333 170.666667 0 95.573333 78.506667 170.666667 170.666667 167.253333 92.16 0 167.253333-78.506667 167.253333-170.666666s-75.093333-167.253333-170.666667-167.253334z m0 0c-95.573333 0-170.666667 78.506667-167.253333 170.666667 0 95.573333 78.506667 170.666667 170.666667 167.253333 92.16 0 167.253333-78.506667 167.253333-170.666666s-75.093333-167.253333-170.666667-167.253334zM512 0C228.693333 0 0 228.693333 0 512s228.693333 512 512 512c139.946667 0 269.653333-58.026667 361.813333-150.186667C965.973333 781.653333 1024 651.946667 1024 512c0-283.306667-228.693333-512-512-512z m283.306667 433.493333c0 13.653333-13.653333 27.306667-27.306667 23.893334-13.653333 0-27.306667-13.653333-23.893333-27.306667V317.44l-122.88 122.88c30.72 37.546667 44.373333 85.333333 44.373333 136.533333 0 122.88-98.986667 221.866667-221.866667 221.866667s-221.866667-102.4-221.866666-221.866667c0-122.88 102.4-221.866667 221.866666-221.866666 51.2 0 102.4 17.066667 139.946667 51.2l119.466667-122.88h-112.64c-13.653333 0-27.306667-13.653333-27.306667-27.306667s10.24-27.306667 27.306667-27.306667H771.413333s3.413333 0 3.413334 3.413334l3.413333 3.413333 3.413333 3.413333s0 3.413333 3.413334 3.413334V433.493333zM443.733333 402.773333c-95.573333 0-170.666667 78.506667-167.253333 170.666667 0 95.573333 78.506667 170.666667 170.666667 167.253333 92.16 0 167.253333-78.506667 167.253333-170.666666s-75.093333-167.253333-170.666667-167.253334z" fill="#359CCF" p-id="47577" data-spm-anchor-id="a313x.7781069.0.i4" class="selected"></path><path d="M795.306667 249.173333v-3.413333s0-3.413333-3.413334-3.413333l-3.413333-3.413334-3.413333-3.413333s-3.413333 0-3.413334-3.413333h-3.413333H600.746667c-13.653333 0-27.306667 10.24-27.306667 27.306666 0 13.653333 10.24 27.306667 27.306667 27.306667h112.64L593.92 409.6c-37.546667-34.133333-88.746667-51.2-139.946667-51.2-122.88 0-221.866667 98.986667-221.866666 221.866667s98.986667 221.866667 221.866666 221.866666 221.866667-98.986667 221.866667-221.866666c0-47.786667-17.066667-95.573333-44.373333-136.533334l122.88-122.88v112.64c0 13.653333 10.24 27.306667 23.893333 27.306667 13.653333 0 27.306667-10.24 27.306667-23.893333V252.586667c-10.24 0-10.24-3.413333-10.24-3.413334zM614.4 573.44c0 92.16-75.093333 170.666667-167.253333 170.666667-95.573333 0-170.666667-75.093333-170.666667-167.253334 0-95.573333 75.093333-170.666667 167.253333-170.666666 95.573333-3.413333 170.666667 71.68 170.666667 167.253333z" fill="#FFFFFF" p-id="47578"></path></svg>