<?xml version="1.0" standalone="no"?><!DOCTYPE svg PUBLIC "-//W3C//DTD SVG 1.1//EN" "http://www.w3.org/Graphics/SVG/1.1/DTD/svg11.dtd"><svg t="1627647326710" class="icon" viewBox="0 0 1024 1024" version="1.1" xmlns="http://www.w3.org/2000/svg" p-id="48506" width="48" height="48" xmlns:xlink="http://www.w3.org/1999/xlink"><defs><style type="text/css">@font-face { font-family: feedback-iconfont; src: url("//at.alicdn.com/t/font_1031158_1uhr8ri0pk5.eot?#iefix") format("embedded-opentype"), url("//at.alicdn.com/t/font_1031158_1uhr8ri0pk5.woff2") format("woff2"), url("//at.alicdn.com/t/font_1031158_1uhr8ri0pk5.woff") format("woff"), url("//at.alicdn.com/t/font_1031158_1uhr8ri0pk5.ttf") format("truetype"), url("//at.alicdn.com/t/font_1031158_1uhr8ri0pk5.svg#iconfont") format("svg"); }
</style></defs><path d="M512 512m-512 0a512 512 0 1 0 1024 0 512 512 0 1 0-1024 0Z" fill="#E8528F" p-id="48507" data-spm-anchor-id="a313x.7781069.0.i13" class="selected"></path><path d="M702.651429 554.56a164.925714 164.925714 0 1 1 48.342857-116.628571 163.885714 163.885714 0 0 1-48.342857 116.628571z m48.228571-281.474286a233.142857 233.142857 0 0 0-352.034286 303.84L358.742857 617.028571l-95.737143-95.725714a34.102857 34.102857 0 0 0-48.217143 48.228572l95.725715 95.771428-37.131429 37.131429a34.102857 34.102857 0 0 0 48.228572 48.228571l37.131428-37.142857 95.737143 95.737143a34.102857 34.102857 0 0 0 48.228571-48.228572l-95.737142-95.725714 40.102857-40.102857a233.142857 233.142857 0 0 0 303.84-352.114286z" fill="#FFFFFF" p-id="48508" data-spm-anchor-id="a313x.7781069.0.i12" class=""></path></svg>