<?xml version="1.0" standalone="no"?><!DOCTYPE svg PUBLIC "-//W3C//DTD SVG 1.1//EN" "http://www.w3.org/Graphics/SVG/1.1/DTD/svg11.dtd"><svg t="1627573404929" class="icon" viewBox="0 0 1024 1024" version="1.1" xmlns="http://www.w3.org/2000/svg" p-id="18236" width="48" height="48" xmlns:xlink="http://www.w3.org/1999/xlink"><defs><style type="text/css">@font-face { font-family: feedback-iconfont; src: url("//at.alicdn.com/t/font_1031158_1uhr8ri0pk5.eot?#iefix") format("embedded-opentype"), url("//at.alicdn.com/t/font_1031158_1uhr8ri0pk5.woff2") format("woff2"), url("//at.alicdn.com/t/font_1031158_1uhr8ri0pk5.woff") format("woff"), url("//at.alicdn.com/t/font_1031158_1uhr8ri0pk5.ttf") format("truetype"), url("//at.alicdn.com/t/font_1031158_1uhr8ri0pk5.svg#iconfont") format("svg"); }
</style></defs><path d="M512 1024C229.229714 1024 0 794.770286 0 512S229.229714 0 512 0s512 229.229714 512 512-229.229714 512-512 512z m189.425371-810.686171c0-32.811886-26.638629-59.728457-59.201828-59.728458H381.776457c-32.607086 0-59.216457 26.916571-59.216457 59.728458v597.328457c0 32.855771 26.609371 59.728457 59.216457 59.728457h260.447086c32.5632 0 59.201829-26.872686 59.201828-59.728457V213.313829z m-355.152457 59.728457h331.541943v477.886171H346.272914V273.042286z m201.259886-47.776915h-71.0656a11.849143 11.849143 0 0 1-11.790629-11.951542c0-6.597486 5.280914-11.951543 11.790629-11.951543h71.0656c6.538971 0 11.8784 5.354057 11.8784 11.951543a11.907657 11.907657 0 0 1-11.8784 11.951542z m-35.562057 549.507658a35.679086 35.679086 0 0 1 35.547428 35.869257 35.620571 35.620571 0 0 1-35.547428 35.810743 35.664457 35.664457 0 0 1-35.5328-35.810743c0-19.807086 15.930514-35.869257 35.5328-35.869257z" fill="#e7a84f" p-id="18237"></path></svg>