<?xml version="1.0" standalone="no"?><!DOCTYPE svg PUBLIC "-//W3C//DTD SVG 1.1//EN" "http://www.w3.org/Graphics/SVG/1.1/DTD/svg11.dtd"><svg t="1627573495482" class="icon" viewBox="0 0 1024 1024" version="1.1" xmlns="http://www.w3.org/2000/svg" p-id="20326" width="48" height="48" xmlns:xlink="http://www.w3.org/1999/xlink"><defs><style type="text/css">@font-face { font-family: feedback-iconfont; src: url("//at.alicdn.com/t/font_1031158_1uhr8ri0pk5.eot?#iefix") format("embedded-opentype"), url("//at.alicdn.com/t/font_1031158_1uhr8ri0pk5.woff2") format("woff2"), url("//at.alicdn.com/t/font_1031158_1uhr8ri0pk5.woff") format("woff"), url("//at.alicdn.com/t/font_1031158_1uhr8ri0pk5.ttf") format("truetype"), url("//at.alicdn.com/t/font_1031158_1uhr8ri0pk5.svg#iconfont") format("svg"); }
</style></defs><path d="M512 0a512 512 0 1 0 512 512A512 512 0 0 0 512 0z m222.208 671.13c-2.458 1.638-17.818 2.048-35.02-38.093h-2.868a192.922 192.922 0 0 1-48.538 73.728 102.4 102.4 0 0 1 30.925 11.469c17.203 10.24 31.744 27.852 12.698 46.899-27.034 27.443-130.663 37.888-177.152-10.035h-6.144c-46.49 47.718-150.119 37.478-177.152 10.035-18.842-19.251-4.506-36.66 12.697-46.9a102.4 102.4 0 0 1 30.925-11.468 192.922 192.922 0 0 1-46.899-73.933h-2.253c-17.203 40.96-32.563 39.731-35.02 38.093-11.674-7.987-20.48-52.224-11.47-89.293a328.909 328.909 0 0 1 42.394-90.112 90.726 90.726 0 0 0 12.698-58.368 244.122 244.122 0 0 1 4.505-53.453 176.538 176.538 0 0 1 346.932 0 244.122 244.122 0 0 1 4.505 53.453 89.907 89.907 0 0 0 12.493 58.368 326.451 326.451 0 0 1 43.213 90.726c9.216 37.07 0 81.92-11.469 89.293z" fill="#4DAFEA" p-id="20327"></path></svg>