<?xml version="1.0" standalone="no"?><!DOCTYPE svg PUBLIC "-//W3C//DTD SVG 1.1//EN" "http://www.w3.org/Graphics/SVG/1.1/DTD/svg11.dtd"><svg t="1627573527584" class="icon" viewBox="0 0 1024 1024" version="1.1" xmlns="http://www.w3.org/2000/svg" p-id="21901" width="48" height="48" xmlns:xlink="http://www.w3.org/1999/xlink"><defs><style type="text/css">@font-face { font-family: feedback-iconfont; src: url("//at.alicdn.com/t/font_1031158_1uhr8ri0pk5.eot?#iefix") format("embedded-opentype"), url("//at.alicdn.com/t/font_1031158_1uhr8ri0pk5.woff2") format("woff2"), url("//at.alicdn.com/t/font_1031158_1uhr8ri0pk5.woff") format("woff"), url("//at.alicdn.com/t/font_1031158_1uhr8ri0pk5.ttf") format("truetype"), url("//at.alicdn.com/t/font_1031158_1uhr8ri0pk5.svg#iconfont") format("svg"); }
</style></defs><path d="M512 0c282.773333 0 512 229.226667 512 512S794.773333 1024 512 1024 0 794.773333 0 512 229.226667 0 512 0z m128.106667 435.2c-100.330667 0-179.306667 69.909333-179.306667 155.626667 0 85.973333 78.997333 155.605333 179.306667 155.605333 20.992 0 42.154667-5.333333 63.232-10.709333L761.152 768l-15.850667-53.632c42.325333-32.341333 73.898667-75.178667 73.898667-123.541333 0-85.76-84.352-155.626667-179.093333-155.626667zM421.44 256C302.357333 256 204.8 339.989333 204.8 446.72c0 61.568 32.426667 112.149333 86.677333 151.424L269.824 665.6l75.733333-39.274667c27.093333 5.504 48.832 11.2 75.861334 11.2 6.826667 0 13.546667-0.32 20.202666-0.832a173.610667 173.610667 0 0 1-6.677333-47.061333c0-97.962667 81.28-177.493333 184.149333-177.493333 7.04 0 13.973333 0.576 20.906667 1.344C621.269333 323.136 527.957333 256 421.44 256z m164.48 256c17.28 0 28.48 12.842667 28.48 25.6 0 12.928-11.221333 25.6-28.458667 25.6-11.306667 0-22.741333-12.672-22.741333-25.6 0-12.757333 11.456-25.6 22.741333-25.6z m102.314667 0c17.173333 0 28.565333 12.842667 28.565333 25.6 0 12.928-11.392 25.6-28.544 25.6-11.221333 0-22.656-12.672-22.656-25.6 0-12.757333 11.392-25.6 22.634667-25.6z m-173.930667-153.6c14.058667 0 23.296 10.176 23.296 25.6 0 15.338667-9.237333 25.6-23.296 25.6-13.909333 0-27.904-10.282667-27.904-25.6 0-15.466667 13.952-25.6 27.904-25.6z m-153.514667 0c13.952 0 23.210667 10.133333 23.210667 25.6 0 15.338667-9.258667 25.6-23.210667 25.6-13.930667 0-27.989333-10.282667-27.989333-25.6 0-15.424 14.058667-25.6 27.989333-25.6z" fill="#58B73D" p-id="21902"></path></svg>